<mxfile host="app.diagrams.net" modified="2023-11-21T02:42:14.668Z" agent="Mozilla/5.0 (Macintosh; Intel Mac OS X 10_15_7) AppleWebKit/537.36 (KHTML, like Gecko) Chrome/119.0.0.0 Safari/537.36" etag="vdDKo4i8oMABH1fhdRvX" version="21.6.5" type="device">
  <diagram name="Page-1" id="QYu5kILXnJ289VLs9uYy">
    <mxGraphModel dx="1576" dy="947" grid="1" gridSize="10" guides="1" tooltips="1" connect="1" arrows="1" fold="1" page="1" pageScale="1" pageWidth="850" pageHeight="1100" background="#ffffff" math="0" shadow="0">
      <root>
        <mxCell id="0" />
        <mxCell id="1" parent="0" />
        <mxCell id="3ogPd9RahWpzQGt6X97d-4" value="&lt;br&gt;&lt;br&gt;&lt;br&gt;&lt;br&gt;&lt;br&gt;&lt;br&gt;&lt;br&gt;&lt;br&gt;&lt;br&gt;&lt;br&gt;&lt;br&gt;&lt;br&gt;&lt;br&gt;&lt;br&gt;&lt;br&gt;Jakarta EE Server or &lt;br&gt;Executable &quot;fat&quot; JAR file" style="whiteSpace=wrap;html=1;aspect=fixed;strokeColor=default;fillColor=#1b028b;fontFamily=Open Sans;fontSource=https%3A%2F%2Ffonts.googleapis.com%2Fcss%3Ffamily%3DOpen%2BSans;labelPosition=center;verticalLabelPosition=middle;align=center;verticalAlign=middle;shadow=0;gradientColor=none;fillStyle=auto;fontColor=#FFFFFF;" parent="1" vertex="1">
          <mxGeometry x="260" y="310" width="260" height="260" as="geometry" />
        </mxCell>
        <mxCell id="3ogPd9RahWpzQGt6X97d-8" value="&lt;br&gt;&lt;br&gt;&lt;br&gt;&lt;br&gt;&lt;br&gt;&lt;br&gt;&lt;br&gt;&lt;br&gt;&lt;br&gt;Container (Web, CDI, Enterprise Bean services)" style="whiteSpace=wrap;html=1;aspect=fixed;strokeColor=#000000;fillColor=default;fontFamily=Open Sans;fontSource=https%3A%2F%2Ffonts.googleapis.com%2Fcss%3Ffamily%3DOpen%2BSans;labelPosition=center;verticalLabelPosition=middle;align=center;verticalAlign=middle;opacity=40;dashed=1;dashPattern=8 8;fontColor=#FFFFFF;" parent="1" vertex="1">
          <mxGeometry x="305" y="350" width="170" height="170" as="geometry" />
        </mxCell>
        <mxCell id="3ogPd9RahWpzQGt6X97d-7" value="Application Code" style="whiteSpace=wrap;html=1;aspect=fixed;strokeColor=#000000;fillColor=#fdb940;fontFamily=Open Sans;fontSource=https%3A%2F%2Ffonts.googleapis.com%2Fcss%3Ffamily%3DOpen%2BSans;labelPosition=center;verticalLabelPosition=middle;align=center;verticalAlign=middle;shadow=0;fontColor=#FFFFFF;" parent="1" vertex="1">
          <mxGeometry x="350" y="380" width="80" height="80" as="geometry" />
        </mxCell>
      </root>
    </mxGraphModel>
  </diagram>
</mxfile>
